<?xml version="1.0" standalone="no"?>
<!DOCTYPE svg PUBLIC "-//W3C//DTD SVG 20010904//EN"
 "http://www.w3.org/TR/2001/REC-SVG-20010904/DTD/svg10.dtd">
<svg version="1.0" xmlns="http://www.w3.org/2000/svg"
 width="1133.000000pt" height="1280.000000pt" viewBox="0 0 1133.000000 1280.000000"
 preserveAspectRatio="xMidYMid meet">
<metadata>
Created by potrace 1.15, written by Peter Selinger 2001-2017
</metadata>
<g transform="translate(0.000000,1280.000000) scale(0.100000,-0.100000)"
fill="#fff" stroke="none">
<path d="M9707 12784 c-472 -85 -1484 -640 -2356 -1292 -249 -186 -410 -321
-536 -447 -55 -55 -197 -182 -315 -280 -335 -279 -942 -795 -1058 -899 -21
-19 -21 -16 8 47 62 137 79 286 41 357 -27 51 -89 80 -168 80 l-64 0 31 44
c50 74 108 204 126 283 42 191 -14 287 -168 288 -37 0 -68 2 -68 4 0 2 18 33
41 68 120 190 159 413 86 491 -49 53 -134 70 -234 49 -35 -8 -63 -13 -63 -12
0 1 16 36 35 78 92 200 86 383 -15 439 -50 28 -162 20 -253 -17 -205 -83 -494
-338 -721 -635 -188 -246 -422 -645 -532 -911 -176 -424 -293 -775 -494 -1488
-174 -615 -255 -784 -464 -964 -130 -112 -194 -211 -237 -367 -19 -73 -23
-110 -23 -260 -1 -96 5 -223 13 -283 8 -59 12 -110 9 -112 -6 -7 -281 152
-398 230 -137 91 -245 188 -317 285 -154 207 -229 281 -363 353 -110 60 -198
82 -325 81 -103 -1 -119 -4 -247 -47 -230 -77 -371 -151 -482 -256 -116 -110
-177 -239 -179 -381 0 -79 8 -115 53 -220 15 -36 35 -90 44 -121 10 -36 32
-75 62 -110 58 -69 138 -205 160 -272 48 -148 102 -188 170 -126 20 19 21 19
56 -15 20 -20 59 -72 86 -118 58 -96 99 -138 134 -141 27 -2 66 -42 229 -232
438 -512 689 -873 835 -1200 120 -272 217 -453 335 -631 104 -155 178 -242
394 -463 270 -275 430 -412 658 -563 l97 -65 -21 -19 c-18 -16 -40 -20 -145
-23 l-123 -3 11 30 c10 26 9 34 -6 51 -27 30 -81 42 -133 31 -27 -7 -50 -7
-61 -1 -29 16 -174 23 -239 12 -96 -15 -128 -34 -152 -90 l-20 -48 -303 -7
c-167 -4 -329 -9 -360 -13 l-58 -6 0 -1138 c0 -627 1 -1139 3 -1139 1 0 751
-151 1667 -335 916 -183 1668 -331 1672 -327 17 18 86 589 113 932 51 657 46
1426 -10 1645 -13 49 -22 91 -20 93 1 2 61 11 131 22 382 54 852 152 1464 305
381 94 532 116 686 96 128 -17 180 -34 347 -113 180 -85 189 -87 672 -128 193
-17 397 -35 455 -40 565 -51 927 -62 1170 -35 125 14 267 39 277 49 3 2 -35
28 -84 56 -167 98 -383 233 -380 237 3 2 159 -26 348 -63 386 -74 502 -85 507
-48 2 12 -9 35 -23 53 -57 67 -31 58 -745 270 -168 49 -365 107 -438 127 -73
20 -131 39 -129 41 2 2 114 -24 248 -57 314 -78 715 -154 1144 -216 187 -27
500 -42 525 -25 38 26 -88 99 -340 196 -193 74 -249 93 -590 196 -909 273
-1855 608 -2520 891 -223 95 -196 80 -603 342 -199 128 -444 283 -544 346
-101 62 -182 115 -180 116 1 2 74 -26 161 -61 405 -165 632 -211 1006 -203
244 4 280 25 199 113 -77 84 -508 388 -675 476 -24 13 -44 30 -44 36 0 15 3
15 55 3 66 -16 189 -14 224 4 82 43 40 147 -133 324 -71 73 -85 92 -66 88 14
-3 68 -14 120 -25 146 -32 332 -59 489 -73 233 -20 443 10 549 79 37 24 42 32
37 53 -32 132 -308 291 -701 404 -63 18 -117 36 -121 41 -5 4 1 5 12 2 45 -14
237 -27 382 -27 308 0 518 55 621 163 l34 35 -20 44 c-39 89 -131 166 -282
237 l-77 36 186 1 c138 0 204 5 254 17 88 22 160 53 185 80 20 21 20 23 4 57
-30 61 -105 125 -220 186 l-45 24 147 0 c214 0 348 32 434 104 40 34 40 56 3
122 -74 129 -300 270 -600 375 -50 17 -90 33 -89 34 2 2 44 -1 93 -7 124 -14
482 -4 565 15 96 22 171 53 210 86 l35 29 -20 37 c-44 84 -180 167 -389 240
l-119 42 99 7 c295 21 496 77 599 167 19 17 35 35 35 40 0 25 -88 101 -159
138 -79 41 -274 103 -366 116 -97 14 -75 22 76 28 307 11 536 77 640 183 l43
44 -19 36 c-43 79 -168 161 -320 210 l-70 22 55 6 c30 3 87 8 125 12 234 20
434 85 510 164 l27 29 -21 35 c-29 46 -121 107 -213 141 -40 14 -82 30 -93 34
-15 6 -4 10 40 15 226 27 398 89 473 169 l23 24 -33 43 c-86 111 -360 205
-736 251 l-103 13 133 27 c284 57 511 163 570 266 17 30 17 30 -17 70 -85 100
-301 165 -598 180 -70 3 -125 8 -123 10 2 3 69 26 148 53 171 58 280 106 369
166 77 51 152 128 147 152 -5 28 -89 70 -173 87 -93 19 -320 21 -484 5 -119
-12 -306 -38 -336 -47 -50 -14 2 10 130 62 434 174 755 389 790 528 7 25 3 29
-41 49 -67 30 -216 36 -355 14 -151 -24 -420 -93 -554 -141 -11 -4 43 34 120
85 229 152 362 257 505 400 138 138 193 214 226 312 20 60 12 72 -59 93 -61
18 -146 18 -250 -1z m-320 -9270 c-3 -3 -12 -4 -19 -1 -8 3 -5 6 6 6 11 1 17
-2 13 -5z m-6720 -519 c-4 -8 -18 -15 -34 -15 l-28 0 30 20 c32 21 41 20 32
-5z"/>
</g>
</svg>
